<svg version="1.1" id="Layer_1" xmlns="http://www.w3.org/2000/svg" xmlns:xlink="http://www.w3.org/1999/xlink" x="0px" y="0px"
	 width="100%" viewBox="0 0 496 592" enable-background="new 0 0 496 592" xml:space="preserve">
<path fill="#000000" opacity="1.000000" stroke="none" 
	d="
M265.620483,416.726929 
	C244.748230,428.274963 222.479355,430.614899 199.517944,429.558716 
	C188.406647,429.047577 177.742905,426.670563 167.548615,422.351807 
	C147.212524,413.736542 133.421906,398.656036 126.135132,378.044922 
	C117.541557,353.737427 117.312691,329.021118 125.429787,304.500488 
	C135.393997,274.399994 156.675430,255.214249 185.543976,243.737366 
	C206.153900,235.543762 227.907425,232.405685 249.734070,229.729401 
	C261.125977,228.332565 272.543121,227.140381 283.951782,225.882507 
	C286.446503,225.607437 288.580902,225.084763 288.633667,221.901047 
	C288.802032,211.736786 289.255219,201.508698 287.179596,191.513992 
	C283.817261,175.323685 273.089172,165.441803 256.728760,163.517914 
	C246.333008,162.295456 236.134094,163.493378 226.539230,168.250214 
	C215.550003,173.698364 208.669342,182.428452 205.424438,194.123169 
	C204.665558,196.858231 204.072922,199.650726 202.602310,202.096634 
	C200.180267,206.124939 196.834702,208.205185 191.832626,207.645706 
	C174.804367,205.741028 157.755768,204.016693 140.710785,202.263885 
	C131.627365,201.329819 127.891838,195.956619 129.929565,186.520142 
	C137.641235,150.808090 158.677048,125.941971 192.557770,113.022934 
	C232.341232,97.853111 272.982880,96.774666 313.267273,111.192497 
	C345.396454,122.691566 364.386230,145.504135 368.446594,180.005630 
	C369.656250,190.284134 370.189148,200.562866 370.197296,210.892593 
	C370.223694,244.389709 370.809052,277.898102 370.110107,311.379791 
	C369.677216,332.116669 375.645172,349.996643 388.628845,365.848755 
	C390.947632,368.679810 393.061646,371.640289 394.340332,375.170410 
	C395.959503,379.640411 395.072235,383.398834 391.571350,386.469421 
	C377.293121,398.992615 363.051971,411.560394 348.624390,423.909912 
	C342.610107,429.057892 336.349182,428.405975 330.188873,423.163727 
	C319.941589,414.443634 311.399567,404.307770 304.182526,392.999146 
	C303.296997,391.611542 302.283020,390.305908 300.861328,388.304535 
	C289.869049,398.882141 279.114899,409.264160 265.620483,416.726929 
M205.993774,317.500610 
	C204.721497,323.765778 205.006699,330.091370 205.318207,336.408997 
	C206.744522,365.335419 235.396011,380.205566 259.828949,364.609161 
	C275.296570,354.735657 282.778473,339.595276 286.612579,322.338318 
	C289.858795,307.727234 288.364746,292.833771 288.800201,278.052216 
	C288.940704,273.282623 286.460297,272.202606 282.681213,272.486694 
	C270.586182,273.395935 258.435303,273.950989 246.664627,277.315002 
	C226.123474,283.185577 210.496185,294.108032 205.993774,317.500610 
z"/>
<path fill="#000000" opacity="1.000000" stroke="none" 
	d="
M270.585999,536.857117 
	C238.898392,538.886719 208.375717,535.422729 178.453476,525.977966 
	C141.147156,514.202393 108.516525,494.563782 79.205864,468.933807 
	C69.769737,460.682587 61.152950,451.686859 52.794312,442.399719 
	C52.349155,441.905090 51.870426,441.420197 51.527508,440.857544 
	C49.947323,438.264709 49.141609,435.508606 51.559040,433.077942 
	C53.966259,430.657532 56.466442,432.006805 58.792824,433.527069 
	C67.011345,438.897644 75.102150,444.475433 83.462433,449.615112 
	C109.685219,465.736237 137.692856,477.935883 167.273468,486.331207 
	C202.588379,496.354004 238.703094,500.540131 275.344604,498.469666 
	C296.451355,497.277039 317.278168,493.565369 337.749084,488.041870 
	C361.780884,481.557587 384.899139,472.782623 406.922028,461.156250 
	C407.950409,460.613403 409.041351,460.187683 410.109406,459.721680 
	C413.864105,458.083496 417.715790,457.255035 420.378815,461.268921 
	C422.989471,465.203796 422.561432,469.388306 419.062927,472.623535 
	C413.688843,477.593109 408.298676,482.616180 402.441162,486.980072 
	C373.048248,508.878113 340.306763,523.476685 304.570831,531.587830 
	C293.489746,534.102966 282.303864,535.578857 270.585999,536.857117 
z"/>
<path fill="#000000" opacity="1.000000" stroke="none" 
	d="
M455.539429,454.425659 
	C451.663239,472.390228 445.057831,488.495087 431.649689,501.095123 
	C430.802856,501.890930 429.951630,502.699707 429.009888,503.372925 
	C427.435150,504.498596 425.626068,505.125885 423.917786,503.887421 
	C422.122894,502.586182 422.507935,500.623108 423.145691,498.866211 
	C425.188538,493.238495 427.481384,487.696899 429.379608,482.022339 
	C432.169434,473.682526 435.545959,465.468445 435.940216,456.509613 
	C436.250885,449.450287 434.561340,447.113281 427.579285,446.002258 
	C415.289612,444.046631 403.032745,445.986298 390.772491,446.734711 
	C388.451721,446.876434 386.142975,447.247406 383.821808,447.340027 
	C382.026978,447.411652 379.912079,447.674316 379.047150,445.553864 
	C378.063202,443.141541 379.514709,441.412201 381.244995,439.955627 
	C384.865967,436.907532 389.167297,434.933167 393.503632,433.370331 
	C409.235535,427.700348 425.434875,425.583130 442.062073,428.320923 
	C456.134033,430.637909 459.077850,434.918365 456.652832,449.126892 
	C456.373077,450.765869 455.967010,452.383301 455.539429,454.425659 
z"/>
</svg>